<mxfile host="app.diagrams.net" modified="2023-10-03T13:54:59.125Z" agent="Mozilla/5.0 (Windows NT 10.0; Win64; x64) AppleWebKit/537.36 (KHTML, like Gecko) Chrome/117.0.0.0 Safari/537.36 Edg/117.0.2045.31" version="22.0.2" etag="zbPC-NU5-DmoHfNN4MIP" type="github">
  <diagram name="Page-1" id="ZFs78ZFYHLNp7j6i0WfS">
    <mxGraphModel>
      <root>
        <mxCell id="0" />
        <mxCell id="1" parent="0" />
      </root>
    </mxGraphModel>
  </diagram>
</mxfile>
